<svg xmlns="http://www.w3.org/2000/svg" fill="none" viewBox="0 0 6 6">
   <path d="M5.52,2.841c-0,0.032 -0.02,0.062 -0.059,0.088l-1.27,0.824c-0.124,-0.04 -0.186,-0.105 -0.186,-0.196c0,-0.033 0.172,-0.146 0.515,-0.339l0.627,-0.343c-0.137,-0.091 -0.326,-0.203 -0.568,-0.333c-0.288,-0.154 -0.481,-0.26 -0.579,-0.319c-0.029,-0.072 -0.044,-0.111 -0.044,-0.118c0.003,-0.006 0.005,-0.013 0.005,-0.019c0.072,-0.079 0.127,-0.118 0.167,-0.118c0.032,0 0.25,0.123 0.652,0.368c0.402,0.245 0.637,0.395 0.706,0.451c0.023,0.016 0.034,0.034 0.034,0.054Z"/>
<path d="M3.76,1.218c-0.039,0.065 -0.093,0.167 -0.162,0.304l-0.917,2.201c-0.248,0.592 -0.444,0.888 -0.588,0.888c-0.062,-0 -0.093,-0.027 -0.093,-0.079c0,-0.029 0.014,-0.062 0.042,-0.098l0.076,-0.098c0.183,-0.294 0.372,-0.677 0.568,-1.147c0.16,-0.399 0.319,-0.798 0.476,-1.196c0.072,-0.18 0.121,-0.322 0.147,-0.427c0.003,-0.059 0.02,-0.142 0.049,-0.25c0.02,-0.046 0.057,-0.085 0.113,-0.118c0.055,-0.032 0.109,-0.049 0.162,-0.049c0.042,0 0.085,0.023 0.127,0.069Z"/>
<path d="M1.804,3.615l-0.01,0.02c-0.069,0.078 -0.122,0.118 -0.162,0.118c-0.032,-0 -0.251,-0.123 -0.654,-0.368c-0.404,-0.245 -0.638,-0.396 -0.704,-0.451c-0.023,-0.016 -0.034,-0.036 -0.034,-0.059c-0,-0.029 0.02,-0.057 0.059,-0.083l1.265,-0.824c0.124,0.039 0.186,0.105 0.186,0.196c-0,0.03 -0.172,0.141 -0.515,0.334c-0.206,0.117 -0.413,0.233 -0.622,0.348c0.137,0.088 0.326,0.199 0.568,0.333c0.288,0.154 0.481,0.26 0.579,0.319c0.029,0.072 0.044,0.111 0.044,0.117Z"/>
    <style>
        path { fill: #000; }
        @media (prefers-color-scheme: dark) {
            path { fill: #FFF; }
        }
    </style>
</svg>
